<?xml version="1.0" encoding="UTF-8" standalone="no"?>
<!DOCTYPE svg PUBLIC "-//W3C//DTD SVG 1.1//EN"
 "http://www.w3.org/Graphics/SVG/1.1/DTD/svg11.dtd">
<!-- Generated by graphviz version 2.47.0 (20210316.0004)
 -->
<!-- Title: dependencies Pages: 1 -->
<svg width="504pt" height="284pt"
 viewBox="0.00 0.00 504.00 284.00" xmlns="http://www.w3.org/2000/svg" xmlns:xlink="http://www.w3.org/1999/xlink">
<g id="graph0" class="graph" transform="scale(1 1) rotate(0) translate(4 280)">
<title>dependencies</title>
<polygon fill="white" stroke="transparent" points="-4,4 -4,-280 500,-280 500,4 -4,4"/>
<text text-anchor="start" x="227.01" y="-42.4" font-family="sans-serif" font-weight="bold" font-size="14.00">Legend</text>
<polygon fill="#ffffb3" stroke="transparent" points="14,-10 14,-30 34,-30 34,-10 14,-10"/>
<text text-anchor="start" x="37.63" y="-15.4" font-family="sans-serif" font-size="14.00"> &#160;Declarations</text>
<polygon fill="#8dd3c7" stroke="transparent" points="127,-10 127,-30 147,-30 147,-10 127,-10"/>
<text text-anchor="start" x="150.73" y="-15.4" font-family="sans-serif" font-size="14.00"> &#160;Module</text>
<polygon fill="#80b1d3" stroke="transparent" points="213,-10 213,-30 233,-30 233,-10 213,-10"/>
<text text-anchor="start" x="236.78" y="-15.4" font-family="sans-serif" font-size="14.00"> &#160;Bootstrap</text>
<polygon fill="#fdb462" stroke="transparent" points="310,-10 310,-30 330,-30 330,-10 310,-10"/>
<text text-anchor="start" x="333.67" y="-15.4" font-family="sans-serif" font-size="14.00"> &#160;Providers</text>
<polygon fill="#fb8072" stroke="transparent" points="406,-10 406,-30 426,-30 426,-10 406,-10"/>
<text text-anchor="start" x="429.73" y="-15.4" font-family="sans-serif" font-size="14.00"> &#160;Exports</text>
<g id="clust1" class="cluster">
<title>cluster_BooksModule</title>
<polygon fill="none" stroke="black" stroke-dasharray="1,5" points="14,-70 14,-268 482,-268 482,-70 14,-70"/>
</g>
<g id="clust6" class="cluster">
<title>cluster_BooksModule_exports</title>
<polygon fill="none" stroke="black" points="165,-208 165,-260 327,-260 327,-208 165,-208"/>
</g>
<g id="clust5" class="cluster">
<title>cluster_BooksModule_imports</title>
<polygon fill="none" stroke="black" points="318,-78 318,-130 474,-130 474,-78 318,-78"/>
</g>
<g id="clust2" class="cluster">
<title>cluster_BooksModule_declarations</title>
<polygon fill="none" stroke="black" points="22,-78 22,-130 310,-130 310,-78 22,-78"/>
</g>
<!-- BookComponent -->
<g id="node1" class="node">
<title>BookComponent</title>
<polygon fill="#ffffb3" stroke="black" points="301.67,-122 190.33,-122 190.33,-86 301.67,-86 301.67,-122"/>
<text text-anchor="middle" x="246" y="-99.8" font-family="Times,serif" font-size="14.00">BookComponent</text>
</g>
<!-- BooksModule -->
<g id="node3" class="node">
<title>BooksModule</title>
<polygon fill="#8dd3c7" stroke="black" points="293.83,-187 290.83,-191 269.83,-191 266.83,-187 198.17,-187 198.17,-151 293.83,-151 293.83,-187"/>
<text text-anchor="middle" x="246" y="-164.8" font-family="Times,serif" font-size="14.00">BooksModule</text>
</g>
<!-- BookComponent&#45;&gt;BooksModule -->
<g id="edge1" class="edge">
<title>BookComponent&#45;&gt;BooksModule</title>
<path fill="none" stroke="black" d="M246,-122.11C246,-122.11 246,-140.99 246,-140.99"/>
<polygon fill="black" stroke="black" points="242.5,-140.99 246,-150.99 249.5,-140.99 242.5,-140.99"/>
</g>
<!-- DashboardComponent -->
<g id="node2" class="node">
<title>DashboardComponent</title>
<polygon fill="#ffffb3" stroke="black" points="171.97,-122 30.03,-122 30.03,-86 171.97,-86 171.97,-122"/>
<text text-anchor="middle" x="101" y="-99.8" font-family="Times,serif" font-size="14.00">DashboardComponent</text>
</g>
<!-- DashboardComponent&#45;&gt;BooksModule -->
<g id="edge2" class="edge">
<title>DashboardComponent&#45;&gt;BooksModule</title>
<path fill="none" stroke="black" d="M101,-122.11C101,-141.34 101,-169 101,-169 101,-169 188.12,-169 188.12,-169"/>
<polygon fill="black" stroke="black" points="188.12,-172.5 198.12,-169 188.12,-165.5 188.12,-172.5"/>
</g>
<!-- DashboardComponent  -->
<g id="node5" class="node">
<title>DashboardComponent </title>
<polygon fill="#fb8072" stroke="black" points="318.97,-252 173.03,-252 173.03,-216 318.97,-216 318.97,-252"/>
<text text-anchor="middle" x="246" y="-229.8" font-family="Times,serif" font-size="14.00">DashboardComponent </text>
</g>
<!-- BooksModule&#45;&gt;DashboardComponent  -->
<g id="edge4" class="edge">
<title>BooksModule&#45;&gt;DashboardComponent </title>
<path fill="none" stroke="black" stroke-dasharray="5,2" d="M246,-187.11C246,-187.11 246,-205.99 246,-205.99"/>
<polygon fill="black" stroke="black" points="242.5,-205.99 246,-215.99 249.5,-205.99 242.5,-205.99"/>
</g>
<!-- BooksRoutingModule -->
<g id="node4" class="node">
<title>BooksRoutingModule</title>
<polygon fill="#8dd3c7" stroke="black" points="466.45,-122 463.45,-126 442.45,-126 439.45,-122 325.55,-122 325.55,-86 466.45,-86 466.45,-122"/>
<text text-anchor="middle" x="396" y="-99.8" font-family="Times,serif" font-size="14.00">BooksRoutingModule</text>
</g>
<!-- BooksRoutingModule&#45;&gt;BooksModule -->
<g id="edge3" class="edge">
<title>BooksRoutingModule&#45;&gt;BooksModule</title>
<path fill="none" stroke="black" d="M396,-122.11C396,-141.34 396,-169 396,-169 396,-169 303.87,-169 303.87,-169"/>
<polygon fill="black" stroke="black" points="303.87,-165.5 293.87,-169 303.87,-172.5 303.87,-165.5"/>
</g>
</g>
</svg>
