<?xml version="1.0" encoding="UTF-8" standalone="no"?>
<!DOCTYPE svg PUBLIC "-//W3C//DTD SVG 1.1//EN"
 "http://www.w3.org/Graphics/SVG/1.1/DTD/svg11.dtd">
<!-- Generated by graphviz version 2.47.0 (20210316.0004)
 -->
<!-- Title: dependencies Pages: 1 -->
<svg width="662pt" height="360pt"
 viewBox="0.00 0.00 662.00 360.00" xmlns="http://www.w3.org/2000/svg" xmlns:xlink="http://www.w3.org/1999/xlink">
<g id="graph0" class="graph" transform="scale(1 1) rotate(0) translate(4 356)">
<title>dependencies</title>
<polygon fill="white" stroke="transparent" points="-4,4 -4,-356 658,-356 658,4 -4,4"/>
<text text-anchor="start" x="306.01" y="-42.4" font-family="sans-serif" font-weight="bold" font-size="14.00">Legend</text>
<polygon fill="#ffffb3" stroke="transparent" points="93,-10 93,-30 113,-30 113,-10 93,-10"/>
<text text-anchor="start" x="116.63" y="-15.4" font-family="sans-serif" font-size="14.00"> &#160;Declarations</text>
<polygon fill="#8dd3c7" stroke="transparent" points="206,-10 206,-30 226,-30 226,-10 206,-10"/>
<text text-anchor="start" x="229.73" y="-15.4" font-family="sans-serif" font-size="14.00"> &#160;Module</text>
<polygon fill="#80b1d3" stroke="transparent" points="292,-10 292,-30 312,-30 312,-10 292,-10"/>
<text text-anchor="start" x="315.78" y="-15.4" font-family="sans-serif" font-size="14.00"> &#160;Bootstrap</text>
<polygon fill="#fdb462" stroke="transparent" points="389,-10 389,-30 409,-30 409,-10 389,-10"/>
<text text-anchor="start" x="412.67" y="-15.4" font-family="sans-serif" font-size="14.00"> &#160;Providers</text>
<polygon fill="#fb8072" stroke="transparent" points="485,-10 485,-30 505,-30 505,-10 485,-10"/>
<text text-anchor="start" x="508.73" y="-15.4" font-family="sans-serif" font-size="14.00"> &#160;Exports</text>
<g id="clust1" class="cluster">
<title>cluster_AppModule</title>
<polygon fill="none" stroke="black" stroke-dasharray="1,5" points="221,-146 221,-344 625,-344 625,-146 221,-146"/>
</g>
<g id="clust2" class="cluster">
<title>cluster_AppModule_declarations</title>
<polygon fill="none" stroke="black" points="495,-154 495,-206 617,-206 617,-154 495,-154"/>
</g>
<g id="clust4" class="cluster">
<title>cluster_AppModule_imports</title>
<polygon fill="none" stroke="black" points="229,-154 229,-206 487,-206 487,-154 229,-154"/>
</g>
<g id="clust6" class="cluster">
<title>cluster_AppModule_bootstrap</title>
<polygon fill="none" stroke="black" points="353,-284 353,-336 477,-336 477,-284 353,-284"/>
</g>
<g id="clust14" class="cluster">
<title>cluster_BooksModule</title>
<polygon fill="none" stroke="black" stroke-dasharray="1,5" points="8,-70 8,-138 646,-138 646,-70 8,-70"/>
</g>
<g id="clust15" class="cluster">
<title>cluster_BooksModule_declarations</title>
<polygon fill="none" stroke="black" points="350,-78 350,-130 638,-130 638,-78 350,-78"/>
</g>
<g id="clust18" class="cluster">
<title>cluster_BooksModule_imports</title>
<polygon fill="none" stroke="black" points="186,-78 186,-130 342,-130 342,-78 186,-78"/>
</g>
<g id="clust19" class="cluster">
<title>cluster_BooksModule_exports</title>
<polygon fill="none" stroke="black" points="16,-78 16,-130 178,-130 178,-78 16,-78"/>
</g>
<!-- AppComponent -->
<g id="node1" class="node">
<title>AppComponent</title>
<polygon fill="#ffffb3" stroke="black" points="608.94,-198 503.06,-198 503.06,-162 608.94,-162 608.94,-198"/>
<text text-anchor="middle" x="556" y="-175.8" font-family="Times,serif" font-size="14.00">AppComponent</text>
</g>
<!-- AppModule -->
<g id="node2" class="node">
<title>AppModule</title>
<polygon fill="#8dd3c7" stroke="black" points="456.66,-263 453.66,-267 432.66,-267 429.66,-263 373.34,-263 373.34,-227 456.66,-227 456.66,-263"/>
<text text-anchor="middle" x="415" y="-240.8" font-family="Times,serif" font-size="14.00">AppModule</text>
</g>
<!-- AppComponent&#45;&gt;AppModule -->
<g id="edge1" class="edge">
<title>AppComponent&#45;&gt;AppModule</title>
<path fill="none" stroke="black" d="M556,-198.11C556,-217.34 556,-245 556,-245 556,-245 466.92,-245 466.92,-245"/>
<polygon fill="black" stroke="black" points="466.92,-241.5 456.92,-245 466.92,-248.5 466.92,-241.5"/>
</g>
<!-- AppComponent  -->
<g id="node5" class="node">
<title>AppComponent </title>
<polygon fill="#80b1d3" stroke="black" points="469.44,-328 360.56,-328 360.56,-292 469.44,-292 469.44,-328"/>
<text text-anchor="middle" x="415" y="-305.8" font-family="Times,serif" font-size="14.00">AppComponent </text>
</g>
<!-- AppModule&#45;&gt;AppComponent  -->
<g id="edge4" class="edge">
<title>AppModule&#45;&gt;AppComponent </title>
<path fill="none" stroke="black" stroke-dasharray="1,5" d="M415,-263.11C415,-263.11 415,-281.99 415,-281.99"/>
<polygon fill="black" stroke="black" points="411.5,-281.99 415,-291.99 418.5,-281.99 411.5,-281.99"/>
</g>
<!-- AppRoutingModule -->
<g id="node3" class="node">
<title>AppRoutingModule</title>
<polygon fill="#8dd3c7" stroke="black" points="479.27,-198 476.27,-202 455.27,-202 452.27,-198 350.73,-198 350.73,-162 479.27,-162 479.27,-198"/>
<text text-anchor="middle" x="415" y="-175.8" font-family="Times,serif" font-size="14.00">AppRoutingModule</text>
</g>
<!-- AppRoutingModule&#45;&gt;AppModule -->
<g id="edge2" class="edge">
<title>AppRoutingModule&#45;&gt;AppModule</title>
<path fill="none" stroke="black" d="M415,-198.11C415,-198.11 415,-216.99 415,-216.99"/>
<polygon fill="black" stroke="black" points="411.5,-216.99 415,-226.99 418.5,-216.99 411.5,-216.99"/>
</g>
<!-- BooksModule -->
<g id="node4" class="node">
<title>BooksModule</title>
<polygon fill="#8dd3c7" stroke="black" points="332.83,-198 329.83,-202 308.83,-202 305.83,-198 237.17,-198 237.17,-162 332.83,-162 332.83,-198"/>
<text text-anchor="middle" x="285" y="-175.8" font-family="Times,serif" font-size="14.00">BooksModule</text>
</g>
<!-- BooksModule&#45;&gt;AppModule -->
<g id="edge3" class="edge">
<title>BooksModule&#45;&gt;AppModule</title>
<path fill="none" stroke="black" d="M285,-198.11C285,-217.34 285,-245 285,-245 285,-245 363.15,-245 363.15,-245"/>
<polygon fill="black" stroke="black" points="363.15,-248.5 373.15,-245 363.15,-241.5 363.15,-248.5"/>
</g>
<!-- DashboardComponent  -->
<g id="node9" class="node">
<title>DashboardComponent </title>
<polygon fill="#fb8072" stroke="black" points="169.97,-122 24.03,-122 24.03,-86 169.97,-86 169.97,-122"/>
<text text-anchor="middle" x="97" y="-99.8" font-family="Times,serif" font-size="14.00">DashboardComponent </text>
</g>
<!-- BooksModule&#45;&gt;DashboardComponent  -->
<g id="edge8" class="edge">
<title>BooksModule&#45;&gt;DashboardComponent </title>
<path fill="none" stroke="black" stroke-dasharray="5,2" d="M237.07,-180C181.37,-180 97,-180 97,-180 97,-180 97,-132.01 97,-132.01"/>
<polygon fill="black" stroke="black" points="100.5,-132.01 97,-122.01 93.5,-132.01 100.5,-132.01"/>
</g>
<!-- BookComponent -->
<g id="node6" class="node">
<title>BookComponent</title>
<polygon fill="#ffffb3" stroke="black" points="629.67,-122 518.33,-122 518.33,-86 629.67,-86 629.67,-122"/>
<text text-anchor="middle" x="574" y="-99.8" font-family="Times,serif" font-size="14.00">BookComponent</text>
</g>
<!-- BookComponent&#45;&gt;BooksModule -->
<g id="edge5" class="edge">
<title>BookComponent&#45;&gt;BooksModule</title>
<path fill="none" stroke="black" d="M563.44,-122.11C563.44,-131.9 563.44,-142 563.44,-142 563.44,-142 300.89,-142 300.89,-142 300.89,-142 300.89,-151.89 300.89,-151.89"/>
<polygon fill="black" stroke="black" points="297.39,-151.89 300.89,-161.89 304.39,-151.89 297.39,-151.89"/>
</g>
<!-- DashboardComponent -->
<g id="node7" class="node">
<title>DashboardComponent</title>
<polygon fill="#ffffb3" stroke="black" points="499.97,-122 358.03,-122 358.03,-86 499.97,-86 499.97,-122"/>
<text text-anchor="middle" x="429" y="-99.8" font-family="Times,serif" font-size="14.00">DashboardComponent</text>
</g>
<!-- DashboardComponent&#45;&gt;BooksModule -->
<g id="edge6" class="edge">
<title>DashboardComponent&#45;&gt;BooksModule</title>
<path fill="none" stroke="black" d="M357.9,-104C348.71,-104 342.42,-104 342.42,-104 342.42,-104 342.42,-180 342.42,-180 342.42,-180 341.44,-180 341.44,-180"/>
<polygon fill="black" stroke="black" points="342.68,-176.5 332.68,-180 342.68,-183.5 342.68,-176.5"/>
</g>
<!-- BooksRoutingModule -->
<g id="node8" class="node">
<title>BooksRoutingModule</title>
<polygon fill="#8dd3c7" stroke="black" points="334.45,-122 331.45,-126 310.45,-126 307.45,-122 193.55,-122 193.55,-86 334.45,-86 334.45,-122"/>
<text text-anchor="middle" x="264" y="-99.8" font-family="Times,serif" font-size="14.00">BooksRoutingModule</text>
</g>
<!-- BooksRoutingModule&#45;&gt;BooksModule -->
<g id="edge7" class="edge">
<title>BooksRoutingModule&#45;&gt;BooksModule</title>
<path fill="none" stroke="black" d="M269.11,-122.01C269.11,-122.01 269.11,-151.85 269.11,-151.85"/>
<polygon fill="black" stroke="black" points="265.61,-151.85 269.11,-161.85 272.61,-151.85 265.61,-151.85"/>
</g>
</g>
</svg>
