<svg data-v-fde0c5aa="" xmlns="http://www.w3.org/2000/svg" viewBox="0 0 300 300" class="iconAbove"><!----><defs data-v-fde0c5aa=""><!----></defs><rect data-v-fde0c5aa="" fill="transparent" x="0" y="0" width="300px" height="300px" class="logo-background-square"></rect><defs data-v-fde0c5aa=""><!----></defs><g data-v-fde0c5aa="" id="20e9739b-7855-42bd-949f-f3da2d9bcef1" fill="#000000"><path d=""></path></g><defs data-v-fde0c5aa=""><linearGradient data-v-fde0c5aa="" gradientTransform="rotate(25)" id="92ac0595-eb56-404f-a1a8-98a82722c01e" x1="0%" y1="0%" x2="100%" y2="0%"><stop data-v-fde0c5aa="" offset="0%" stop-color="#0D7CE9" stop-opacity="1"></stop><stop data-v-fde0c5aa="" offset="100%" stop-color="#15CFF1" stop-opacity="1"></stop></linearGradient></defs><g data-v-fde0c5aa="" id="2e5e9cbb-b60e-4131-9237-aaab584afeae" stroke="none" fill="url(#92ac0595-eb56-404f-a1a8-98a82722c01e)"><path d="M133.189 239.867c0 8.284-6.187 12.691-13.817 9.844L14.356 203.648C6.725 200.8.538 191.776.538 183.492v-145c0-8.284 6.501-12.915 13.818-9.844L119.372 74.71c7.631 2.848 13.817 11.872 13.817 20.156v145.001z"></path><path d="M119.573 74.252c7.771 2.9 14.116 12.152 14.116 20.614v145c0 6.705-3.948 11.21-9.823 11.21-1.503 0-3.073-.303-4.669-.897L14.155 204.106C6.383 201.207.038 191.955.038 183.492v-145c0-6.705 17.22-23.296 13.55-18.708-4.966 6.209-.652 7.8.943 8.396m-4.669.102c-5.278 0-8.824 4.103-8.824 10.209v145c0 8.08 6.053 16.912 13.493 19.688l105.042 46.073c1.457.543 2.91.824 4.293.824 5.277 0 8.823-4.104 8.823-10.21v-145c0-8.08-6.053-16.912-13.492-19.688L14.155 29.106c-1.457-.543-2.91-.824-4.293-.824z"></path><path d="M126.795 249.873l-5.068-6.189 26.459-21.67 3.933-.653c2.383.891 4.517.809 6.008-.227 1.556-1.08 2.412-3.164 2.412-5.869v-145c0-6.626-5.137-14.14-11.217-16.409l-.146-.058L39.823 8.013c-8.66-.254-17.459 3.097-23.702 9.031C10.884 22.021 8 28.379 8 34.948v4H0v-4c0-8.783 3.768-17.201 10.609-23.703C18.576 3.674 29.911-.511 40.907.05l1.342.305 109.947 46.034c9.17 3.466 16.342 13.935 16.342 23.875v145c0 5.325-2.132 9.859-5.85 12.44-3.078 2.136-7.019 2.771-11.074 1.841l-24.819 20.328z"></path></g><!----></svg>