<?xml version="1.0" encoding="UTF-8" standalone="no"?>
<!DOCTYPE svg PUBLIC "-//W3C//DTD SVG 1.1//EN" "http://www.w3.org/Graphics/SVG/1.1/DTD/svg11.dtd">
<svg width="100%" height="100%" viewBox="0 0 300 300" version="1.1" xmlns="http://www.w3.org/2000/svg" xmlns:xlink="http://www.w3.org/1999/xlink" xml:space="preserve" xmlns:serif="http://www.serif.com/" style="fill-rule:evenodd;clip-rule:evenodd;stroke-linejoin:round;stroke-miterlimit:2;">
    <g id="_2e5e9cbb-b60e-4131-9237-aaab584afeae" serif:id="2e5e9cbb-b60e-4131-9237-aaab584afeae" transform="matrix(1.14062,0,0,1.14062,53.8812,6.80895)">
        <path d="M133.189,239.867C133.189,248.151 127.002,252.558 119.372,249.711L14.356,203.648C6.725,200.8 0.538,191.776 0.538,183.492L0.538,38.492C0.538,30.208 7.039,25.577 14.356,28.648L119.372,74.71C127.003,77.558 133.189,86.582 133.189,94.866L133.189,239.867Z" style="fill:url(#_Linear1);fill-rule:nonzero;"/>
        <path d="M119.573,74.252C127.344,77.152 133.689,86.404 133.689,94.866L133.689,239.866C133.689,246.571 129.741,251.076 123.866,251.076C122.363,251.076 120.793,250.773 119.197,250.179L14.155,204.106C6.383,201.207 0.038,191.955 0.038,183.492L0.038,38.492C0.038,31.787 17.258,15.196 13.588,19.784C8.622,25.993 12.936,27.584 14.531,28.18M9.862,28.282C4.584,28.282 1.038,32.385 1.038,38.491L1.038,183.491C1.038,191.571 7.091,200.403 14.531,203.179L119.573,249.252C121.03,249.795 122.483,250.076 123.866,250.076C129.143,250.076 132.689,245.972 132.689,239.866L132.689,94.866C132.689,86.786 126.636,77.954 119.197,75.178L14.155,29.106C12.698,28.563 11.245,28.282 9.862,28.282Z" style="fill:url(#_Linear2);fill-rule:nonzero;"/>
        <path d="M126.795,249.873L121.727,243.684L148.186,222.014L152.119,221.361C154.502,222.252 156.636,222.17 158.127,221.134C159.683,220.054 160.539,217.97 160.539,215.265L160.539,70.265C160.539,63.639 155.402,56.125 149.322,53.856L149.176,53.798L39.823,8.013C31.163,7.759 22.364,11.11 16.121,17.044C10.884,22.021 8,28.379 8,34.948L8,38.948L0,38.948L0,34.948C0,26.165 3.768,17.747 10.609,11.245C18.576,3.674 29.911,-0.511 40.907,0.05L42.249,0.355L152.196,46.389C161.366,49.855 168.538,60.324 168.538,70.264L168.538,215.264C168.538,220.589 166.406,225.123 162.688,227.704C159.61,229.84 155.669,230.475 151.614,229.545L126.795,249.873Z" style="fill:url(#_Linear3);fill-rule:nonzero;"/>
    </g>
    <defs>
        <linearGradient id="_Linear1" x1="0" y1="0" x2="1" y2="0" gradientUnits="userSpaceOnUse" gradientTransform="matrix(120.223,94.1939,-94.1939,120.223,0.538,27.6947)"><stop offset="0" style="stop-color:rgb(13,124,233);stop-opacity:1"/><stop offset="1" style="stop-color:rgb(21,207,241);stop-opacity:1"/></linearGradient>
        <linearGradient id="_Linear2" x1="0" y1="0" x2="1" y2="0" gradientUnits="userSpaceOnUse" gradientTransform="matrix(121.129,98.0823,-98.0823,121.129,0.038,18.9935)"><stop offset="0" style="stop-color:rgb(13,124,233);stop-opacity:1"/><stop offset="1" style="stop-color:rgb(21,207,241);stop-opacity:1"/></linearGradient>
        <linearGradient id="_Linear3" x1="0" y1="0" x2="1" y2="0" gradientUnits="userSpaceOnUse" gradientTransform="matrix(152.747,105.601,-105.601,152.747,0,-1.90717e-05)"><stop offset="0" style="stop-color:rgb(13,124,233);stop-opacity:1"/><stop offset="1" style="stop-color:rgb(21,207,241);stop-opacity:1"/></linearGradient>
    </defs>
</svg>
